<?xml version="1.0" encoding="UTF-8" standalone="no"?>
<!DOCTYPE svg PUBLIC "-//W3C//DTD SVG 1.1//EN"
 "http://www.w3.org/Graphics/SVG/1.1/DTD/svg11.dtd">
<!-- Generated by graphviz version 2.40.1 (20161225.0304)
 -->
<!-- Title: snakemake_dag Pages: 1 -->
<svg width="142pt" height="188pt"
 viewBox="0.00 0.00 142.00 188.00" xmlns="http://www.w3.org/2000/svg" xmlns:xlink="http://www.w3.org/1999/xlink">
<g id="graph0" class="graph" transform="scale(1 1) rotate(0) translate(4 184)">
<title>snakemake_dag</title>
<polygon fill="#ffffff" stroke="transparent" points="-4,4 -4,-184 138,-184 138,4 -4,4"/>
<!-- 0 -->
<g id="node1" class="node">
<title>0</title>
<path fill="none" stroke="#d6d856" stroke-width="2" stroke-dasharray="5,2" d="M103,-36C103,-36 31,-36 31,-36 25,-36 19,-30 19,-24 19,-24 19,-12 19,-12 19,-6 25,0 31,0 31,0 103,0 103,0 109,0 115,-6 115,-12 115,-12 115,-24 115,-24 115,-30 109,-36 103,-36"/>
<text text-anchor="middle" x="67" y="-15.5" font-family="sans" font-size="10.00" fill="#000000">plot_phyml_tree</text>
</g>
<!-- 1 -->
<g id="node2" class="node">
<title>1</title>
<path fill="none" stroke="#d85656" stroke-width="2" stroke-dasharray="5,2" d="M109,-108C109,-108 25,-108 25,-108 19,-108 13,-102 13,-96 13,-96 13,-84 13,-84 13,-78 19,-72 25,-72 25,-72 109,-72 109,-72 115,-72 121,-78 121,-84 121,-84 121,-96 121,-96 121,-102 115,-108 109,-108"/>
<text text-anchor="middle" x="67" y="-87.5" font-family="sans" font-size="10.00" fill="#000000">create_phyml_tree</text>
</g>
<!-- 1&#45;&gt;0 -->
<g id="edge1" class="edge">
<title>1&#45;&gt;0</title>
<path fill="none" stroke="#c0c0c0" stroke-width="2" d="M67,-71.8314C67,-64.131 67,-54.9743 67,-46.4166"/>
<polygon fill="#c0c0c0" stroke="#c0c0c0" stroke-width="2" points="70.5001,-46.4132 67,-36.4133 63.5001,-46.4133 70.5001,-46.4132"/>
</g>
<!-- 2 -->
<g id="node3" class="node">
<title>2</title>
<path fill="none" stroke="#59d856" stroke-width="2" stroke-dasharray="5,2" d="M122,-180C122,-180 12,-180 12,-180 6,-180 0,-174 0,-168 0,-168 0,-156 0,-156 0,-150 6,-144 12,-144 12,-144 122,-144 122,-144 128,-144 134,-150 134,-156 134,-156 134,-168 134,-168 134,-174 128,-180 122,-180"/>
<text text-anchor="middle" x="67" y="-159.5" font-family="sans" font-size="10.00" fill="#000000">convert_fasta_to_phylip</text>
</g>
<!-- 2&#45;&gt;1 -->
<g id="edge2" class="edge">
<title>2&#45;&gt;1</title>
<path fill="none" stroke="#c0c0c0" stroke-width="2" d="M67,-143.8314C67,-136.131 67,-126.9743 67,-118.4166"/>
<polygon fill="#c0c0c0" stroke="#c0c0c0" stroke-width="2" points="70.5001,-118.4132 67,-108.4133 63.5001,-118.4133 70.5001,-118.4132"/>
</g>
</g>
</svg>
